<?xml version="1.0" standalone="no"?>
<!DOCTYPE svg PUBLIC "-//W3C//DTD SVG 20010904//EN"
 "http://www.w3.org/TR/2001/REC-SVG-20010904/DTD/svg10.dtd">
<svg version="1.0" xmlns="http://www.w3.org/2000/svg"
 width="328.000000pt" height="328.000000pt" viewBox="0 0 328.000000 328.000000"
 preserveAspectRatio="xMidYMid meet">
<metadata>
Created by potrace 1.14, written by Peter Selinger 2001-2017
</metadata>
<g transform="translate(0.000000,328.000000) scale(0.100000,-0.100000)"
fill="#000000" stroke="none">
<path d="M964 2996 c-89 -33 -146 -69 -195 -124 -36 -40 -138 -206 -220 -357
-9 -16 -57 -100 -106 -185 -49 -85 -92 -162 -96 -170 -4 -8 -13 -24 -20 -35
-116 -192 -194 -343 -206 -399 -8 -40 -7 -172 2 -215 11 -48 20 -65 326 -601
300 -526 329 -568 442 -625 105 -54 108 -54 735 -55 627 0 646 1 748 52 101
51 157 119 288 348 64 113 126 221 137 240 11 19 29 51 40 70 10 19 78 138
150 264 72 125 140 256 150 290 26 80 22 208 -7 285 -12 30 -149 277 -304 550
-246 432 -291 504 -343 556 -67 66 -119 96 -210 120 -51 13 -145 15 -655 14
-591 -1 -595 -1 -656 -23z m1195 -529 c12 -23 26 -49 31 -57 6 -8 42 -71 81
-140 100 -175 106 -185 213 -375 53 -93 100 -177 106 -185 5 -8 19 -31 29 -51
l20 -35 -80 -140 c-43 -76 -86 -150 -94 -164 -8 -14 -85 -149 -172 -301 l-157
-276 -501 0 -502 0 -54 95 c-30 53 -68 121 -85 151 -17 31 -93 164 -169 296
-76 132 -151 263 -166 290 l-28 51 252 441 252 440 501 1 501 0 22 -41z"/>
<path d="M1592 2217 c-22 -13 -56 -63 -119 -177 -16 -30 -56 -100 -88 -155
-32 -55 -75 -129 -94 -163 -20 -35 -40 -71 -46 -81 -67 -112 -135 -242 -135
-259 0 -12 5 -33 12 -47 25 -55 29 -55 518 -55 492 0 493 0 519 57 18 40 13
65 -29 137 -22 37 -40 69 -40 70 0 1 -85 150 -188 330 -123 214 -197 333 -213
342 -30 17 -67 17 -97 1z"/>
</g>
</svg>
